<svg viewBox="0 0 690 160" xmlns="http://www.w3.org/2000/svg" role="img" aria-label="Recovery pipeline diagram">
  <g fill="none" stroke="#0057A8" stroke-width="1.5">
    <rect x="4" y="64" width="118" height="42"/>
    <rect x="152" y="64" width="102" height="42"/>
    <rect x="284" y="64" width="110" height="42"/>
    <rect x="424" y="64" width="116" height="42"/>
    <rect x="570" y="64" width="116" height="42"/>
    <path d="M122 85h30m-8 -5 8 5-8 5"/>
    <path d="M254 85h30m-8 -5 8 5-8 5"/>
    <path d="M394 85h30m-8 -5 8 5-8 5"/>
    <path d="M540 85h30m-8 -5 8 5-8 5"/>
    <path d="M203 64v-34h279v26m-5 -8 5 8 5-8"/>
  </g>
  <g fill="#1B1915" font-family="Archivo, sans-serif" font-size="10" font-weight="600" letter-spacing="0.5" text-anchor="middle">
    <text x="63" y="89">INVOICE FAILS</text>
    <text x="203" y="89">CLASSIFY</text>
    <text x="339" y="89">RETRY ×4</text>
    <text x="482" y="89">DUNNING ×4</text>
    <text x="628" y="83">RECOVERED</text>
    <text x="628" y="97">OR LOST</text>
    <text x="342" y="24">HARD DECLINE</text>
  </g>
  <g fill="#6A665B" font-family="Archivo, sans-serif" font-size="8.5" letter-spacing="0.4" text-anchor="middle">
    <text x="339" y="124">+4H +72H +96H +168H</text>
    <text x="482" y="124">+0H +72H +168H +288H</text>
  </g>
</svg>
